<?xml version="1.0" encoding="utf-8"?>
<!-- Generator: Adobe Illustrator 19.1.0, SVG Export Plug-In . SVG Version: 6.00 Build 0)  -->
<svg version="1.1" id="Layer_1" xmlns:sketch="http://www.bohemiancoding.com/sketch/ns"
	 xmlns="http://www.w3.org/2000/svg" xmlns:xlink="http://www.w3.org/1999/xlink" x="0px" y="0px" width="18px" height="18px"
	 viewBox="0 0 18 18" style="enable-background:new 0 0 18 18;" xml:space="preserve">
<style type="text/css">
	.st0{fill:#FFFFFF;}
	.st1{fill:#34568F;}
</style>
<title>Facebook_icon</title>
<desc>Created with Sketch.</desc>
<g id="Symbols" sketch:type="MSPage">
	<g id="page-components" transform="translate(-104.000000, -587.000000)" sketch:type="MSArtboardGroup">
		<g id="Imported-Layers-Copy-3" transform="translate(104.000000, 587.260000)" sketch:type="MSLayerGroup">
			<path id="Fill-1" sketch:type="MSShapeGroup" class="st0" d="M15.3,15.9l-1.9,1.9H5.5V1.4h9.8V15.9"/>
			<path id="Fill-2" sketch:type="MSShapeGroup" class="st1" d="M17.9,14.4V3.1c0-1.9-1.5-3.4-3.3-3.4H3.5c-1.8,0-3.3,1.5-3.3,3.4
				v11.2c0,1.9,1.5,3.4,3.3,3.4h6.3v-7.1H7.2V8h2.6V6c0-2.3,1.4-3.6,3.5-3.6c1,0,1.7,0.1,2.1,0.1V5l-1.5,0c-1.1,0-1.4,0.5-1.4,1.3V8
				H15l-0.3,2.6h-2.3v7.1h2.2C16.4,17.7,17.9,16.2,17.9,14.4"/>
		</g>
	</g>
</g>
</svg>
