<?xml version="1.0" encoding="utf-8"?>
<!-- Generator: Adobe Illustrator 19.1.0, SVG Export Plug-In . SVG Version: 6.00 Build 0)  -->
<svg version="1.1" id="Layer_1" xmlns:sketch="http://www.bohemiancoding.com/sketch/ns"
	 xmlns="http://www.w3.org/2000/svg" xmlns:xlink="http://www.w3.org/1999/xlink" x="0px" y="0px" width="18px" height="18px"
	 viewBox="-246 325.1 18 18" style="enable-background:new -246 325.1 18 18;" xml:space="preserve">
<style type="text/css">
	.st0{fill:#FFFFFF;}
</style>
<title>Instagram_icon</title>
<desc>Created with Sketch.</desc>
<g>
	<path class="st0" d="M-237,327.1c2.3,0,2.6,0,3.5,0c0.8,0,1.3,0.2,1.6,0.3c0.4,0.2,0.7,0.3,1,0.6c0.3,0.3,0.5,0.6,0.6,1
		c0.1,0.3,0.3,0.8,0.3,1.6c0,0.9,0,1.2,0,3.5c0,2.3,0,2.6,0,3.5c0,0.8-0.2,1.3-0.3,1.6c-0.2,0.4-0.3,0.7-0.6,1
		c-0.3,0.3-0.6,0.5-1,0.6c-0.3,0.1-0.8,0.3-1.6,0.3c-0.9,0-1.2,0-3.5,0c-2.3,0-2.6,0-3.5,0c-0.8,0-1.3-0.2-1.6-0.3
		c-0.4-0.2-0.7-0.3-1-0.6c-0.3-0.3-0.5-0.6-0.6-1c-0.1-0.3-0.3-0.8-0.3-1.6c0-0.9,0-1.2,0-3.5c0-2.3,0-2.6,0-3.5
		c0-0.8,0.2-1.3,0.3-1.6c0.2-0.4,0.3-0.7,0.6-1c0.3-0.3,0.6-0.5,1-0.6c0.3-0.1,0.8-0.3,1.6-0.3C-239.6,327.1-239.3,327.1-237,327.1
		 M-237,325.6c-2.3,0-2.6,0-3.5,0.1c-0.9,0-1.5,0.2-2.1,0.4c-0.6,0.2-1,0.5-1.5,1c-0.5,0.5-0.8,1-1,1.5c-0.2,0.5-0.4,1.2-0.4,2.1
		c0,0.9-0.1,1.2-0.1,3.5s0,2.6,0.1,3.5c0,0.9,0.2,1.5,0.4,2.1c0.2,0.6,0.5,1,1,1.5c0.5,0.5,1,0.8,1.5,1c0.5,0.2,1.2,0.4,2.1,0.4
		c0.9,0,1.2,0.1,3.5,0.1c2.3,0,2.6,0,3.5-0.1c0.9,0,1.5-0.2,2.1-0.4c0.6-0.2,1-0.5,1.5-1s0.8-1,1-1.5c0.2-0.5,0.4-1.2,0.4-2.1
		c0-0.9,0.1-1.2,0.1-3.5s0-2.6-0.1-3.5c0-0.9-0.2-1.5-0.4-2.1c-0.2-0.6-0.5-1-1-1.5s-1-0.8-1.5-1c-0.5-0.2-1.2-0.4-2.1-0.4
		C-234.4,325.6-234.7,325.6-237,325.6L-237,325.6z"/>
	<path class="st0" d="M-237,329.8c-2.4,0-4.4,2-4.4,4.4s2,4.4,4.4,4.4c2.4,0,4.4-2,4.4-4.4S-234.6,329.8-237,329.8z M-237,337
		c-1.6,0-2.9-1.3-2.9-2.9s1.3-2.9,2.9-2.9c1.6,0,2.9,1.3,2.9,2.9S-235.4,337-237,337z"/>
	<circle class="st0" cx="-232.4" cy="329.6" r="1"/>
</g>
</svg>
