<?xml version="1.0" encoding="utf-8"?>
<!-- Generator: Adobe Illustrator 19.1.0, SVG Export Plug-In . SVG Version: 6.00 Build 0)  -->
<svg version="1.1" id="Layer_1" xmlns:sketch="http://www.bohemiancoding.com/sketch/ns"
	 xmlns="http://www.w3.org/2000/svg" xmlns:xlink="http://www.w3.org/1999/xlink" x="0px" y="0px" width="18px" height="18px"
	 viewBox="0 0 18 18" style="enable-background:new 0 0 18 18;" xml:space="preserve">
<style type="text/css">
	.st0{fill:#0F6FA5;}
	.st1{fill:#FFFFFF;}
</style>
<title>linkedin_icon</title>
<desc>Created with Sketch.</desc>
<g id="Symbols" sketch:type="MSPage">
	<g id="page-components" transform="translate(-104.000000, -684.000000)" sketch:type="MSArtboardGroup">
		<g id="Imported-Layers-Copy" transform="translate(104.000000, 684.260000)" sketch:type="MSLayerGroup">
			<path id="Fill-1" sketch:type="MSShapeGroup" class="st0" d="M17.9,3.1c0-1.9-1.5-3.4-3.3-3.4H3.5c-1.8,0-3.3,1.5-3.3,3.4v11.3
				c0,1.9,1.5,3.4,3.3,3.4h11.1c1.8,0,3.3-1.5,3.3-3.4V3.1"/>
			<path id="Fill-2" sketch:type="MSShapeGroup" class="st1" d="M2.9,6.4h2.6v8.7H2.9V6.4z"/>
			<path id="Fill-3" sketch:type="MSShapeGroup" class="st1" d="M4.2,5.2c-0.8,0-1.5-0.7-1.5-1.6c0-0.9,0.7-1.6,1.5-1.6
				c0.8,0,1.5,0.7,1.5,1.6C5.7,4.5,5,5.2,4.2,5.2"/>
			<path id="Fill-4" sketch:type="MSShapeGroup" class="st1" d="M15.3,15.1h-2.6v-4.2c0-1,0-2.3-1.4-2.3c-1.4,0-1.6,1.1-1.6,2.2v4.3
				H7.2V6.4h2.5v1.2h0c0.3-0.7,1.2-1.4,2.5-1.4c2.6,0,3.1,1.8,3.1,4.1V15.1"/>
		</g>
	</g>
</g>
</svg>
