<?xml version="1.0" encoding="utf-8"?>
<!-- Generator: Adobe Illustrator 19.1.0, SVG Export Plug-In . SVG Version: 6.00 Build 0)  -->
<svg version="1.1" id="Layer_1" xmlns:sketch="http://www.bohemiancoding.com/sketch/ns"
	 xmlns="http://www.w3.org/2000/svg" xmlns:xlink="http://www.w3.org/1999/xlink" x="0px" y="0px" width="18px" height="19px"
	 viewBox="-416 132.5 18 19" style="enable-background:new -416 132.5 18 19;" xml:space="preserve">
<style type="text/css">
	.st0{fill:#FFFFFF;}
	.st1{fill:#2E9FCE;}
</style>
<g>
	<title>Twitter_icon</title>
	<g id="Symbols" sketch:type="MSPage">
		<g id="page-components" transform="translate(-104.000000, -619.000000)" sketch:type="MSArtboardGroup">
			<g id="Imported-Layers-Copy-4" transform="translate(104.000000, 619.260000)" sketch:type="MSLayerGroup">
				<path id="Fill-1" sketch:type="MSShapeGroup" class="st0" d="M-413.3,137.2h12.9v10.7h-12.9V137.2z"/>
				<path id="Fill-2" sketch:type="MSShapeGroup" class="st1" d="M-400.9,138.7c-0.3,0.5-0.7,0.9-1.2,1.3c0,0.1,0,0.2,0,0.3
					c0,3.3-2.4,7-6.9,7c-1.4,0-2.6-0.4-3.7-1.1c0.2,0,0.4,0,0.6,0c1.1,0,2.2-0.4,3-1.1c-1.1,0-1.9-0.7-2.3-1.7c0.1,0,0.3,0,0.4,0
					c0.2,0,0.4,0,0.6-0.1c-1.1-0.2-2-1.2-2-2.4l0,0c0.4,0.2,0.7,0.3,1.2,0.3c-0.7-0.4-1-1.2-1-2.1c0-0.4,0.1-0.9,0.3-1.2
					c1.2,1.5,3,2.5,5,2.6c0-0.2-0.1-0.4-0.1-0.6c0-1.4,1.1-2.5,2.4-2.5c0.7,0,1.3,0.3,1.8,0.8c0.6-0.1,1.1-0.3,1.5-0.6
					c-0.2,0.6-0.6,1.1-1.1,1.4C-401.8,139.1-401.3,138.9-400.9,138.7L-400.9,138.7z M-398,136.5c0-1.9-1.5-3.4-3.3-3.4h-11.1
					c-1.8,0-3.3,1.5-3.3,3.4v11.3c0,1.9,1.5,3.4,3.3,3.4h11.1c1.8,0,3.3-1.5,3.3-3.4V136.5L-398,136.5z"/>
			</g>
		</g>
	</g>
	<desc>Created with Sketch.</desc>
</g>
</svg>
