<?xml version="1.0" encoding="UTF-8" standalone="no"?>
<svg width="18px" height="18px" viewBox="0 0 18 18" version="1.1" xmlns="http://www.w3.org/2000/svg" xmlns:xlink="http://www.w3.org/1999/xlink" xmlns:sketch="http://www.bohemiancoding.com/sketch/ns">
    <!-- Generator: Sketch 3.3.2 (12043) - http://www.bohemiancoding.com/sketch -->
    <title>Youtube_icon</title>
    <desc>Created with Sketch.</desc>
    <defs></defs>
    <g id="Symbols" stroke="none" stroke-width="1" fill="none" fill-rule="evenodd" sketch:type="MSPage">
        <g id="page-components" sketch:type="MSArtboardGroup" transform="translate(-104.000000, -716.000000)">
            <g id="Imported-Layers-Copy-6" sketch:type="MSLayerGroup" transform="translate(104.000000, 716.260000)">
                <path d="M17.8171875,3.5544375 C17.8171875,1.7505 16.331625,0.286875 14.50125,0.286875 L3.4475625,0.286875 C1.616625,0.286875 0.1310625,1.7505 0.1310625,3.5544375 L0.1310625,14.44725 C0.1310625,16.2511875 1.616625,17.7148125 3.4475625,17.7148125 L14.50125,17.7148125 C16.331625,17.7148125 17.8171875,16.2511875 17.8171875,14.44725 L17.8171875,3.5544375" id="Fill-1" fill="#B92C30" sketch:type="MSShapeGroup"></path>
                <path d="M8.9775,4.7491875 L8.97075,4.7491875 C8.97075,4.7491875 6.45075,4.7491875 4.7728125,4.8695625 C4.5376875,4.8965625 4.0275,4.8999375 3.5713125,5.383125 C3.2124375,5.74875 3.094875,6.584625 3.094875,6.584625 C3.094875,6.584625 2.9739375,7.5645 2.9739375,8.541 L2.9739375,9.4573125 C2.9739375,10.4371875 3.094875,11.4136875 3.094875,11.4136875 C3.094875,11.4136875 3.2124375,12.2461875 3.5713125,12.6151875 C4.0275,13.098375 4.62825,13.0815 4.89375,13.132125 C5.853375,13.2260625 8.974125,13.2525 8.974125,13.2525 C8.974125,13.2525 11.4946875,13.249125 13.1754375,13.125375 C13.4105625,13.098375 13.92075,13.095 14.3769375,12.6118125 C14.736375,12.2461875 14.853375,11.4103125 14.853375,11.4103125 C14.853375,11.4103125 14.9743125,10.4304375 14.9743125,9.4539375 L14.9743125,8.537625 C14.9743125,7.55775 14.853375,6.58125 14.853375,6.58125 C14.853375,6.58125 14.736375,5.74875 14.3769375,5.37975 C13.92075,4.8965625 13.4105625,4.8965625 13.1754375,4.8661875 C11.4980625,4.7491875 8.9775,4.7491875 8.9775,4.7491875" id="Fill-2" fill="#FFFFFF" sketch:type="MSShapeGroup"></path>
                <path d="M7.7225625,7.2725625 L10.9108125,8.940375 L7.7225625,10.6785 L7.7225625,7.2725625" id="Fill-3" fill="#B92C30" sketch:type="MSShapeGroup"></path>
            </g>
        </g>
    </g>
</svg>